<svg xmlns="http://www.w3.org/2000/svg" viewBox="0 0 512 512" style="enable-background:new 0 0 512 512" xml:space="preserve"><path style="fill:#db9437" d="M382.987 198.098a15.912 15.912 0 0 1-3.112-6.914 124.321 124.321 0 0 0-9.904-30.709c-4.984-10.522 2.703-22.685 14.358-22.685h111.785c8.773 0 15.886 7.113 15.886 15.886 0 68.462-86.928 98.229-129.013 44.422z"/><path style="fill:#747c81" d="M350.514 124.316c-8.773 0-15.886-7.113-15.886-15.886V44.185c0-8.773 7.113-15.886 15.886-15.886S366.4 35.412 366.4 44.185v64.246c.001 8.773-7.112 15.885-15.886 15.885z"/><path style="fill:#7d868c" d="M161.487 124.316c-8.773 0-15.886-7.113-15.886-15.886V44.185c0-8.773 7.113-15.886 15.886-15.886s15.886 7.113 15.886 15.886v64.246c0 8.773-7.113 15.885-15.886 15.885z"/><path style="fill:#e7a53b" d="M72.147 225.835C32.365 225.835 0 193.465 0 153.676c0-8.773 7.113-15.886 15.886-15.886h111.785c11.642 0 19.346 12.153 14.358 22.685a124.321 124.321 0 0 0-9.904 30.709 15.877 15.877 0 0 1-3.112 6.914c-13.787 17.628-34.513 27.737-56.866 27.737z"/><path style="fill:#ffc843" d="M390.761 323.24c-7.548-3.773-15.7-5.688-24.229-5.688H145.468c-8.53 0-16.681 1.914-24.229 5.688-10.539 5.27-22.99-2.402-22.99-14.21 0-103.069-.781-105.228 2.632-123.617a156.129 156.129 0 0 1 12.432-38.537c47.097-99.66 177.761-120.678 254.23-44.209 56.359 56.359 46.208 114.653 46.208 206.362.001 11.851-12.493 19.458-22.99 14.211z"/><path style="fill:#f3b73f" d="M367.543 102.668C336.282 71.406 295.963 56.447 256 56.483v261.068h110.531c8.53 0 16.681 1.914 24.229 5.688 10.496 5.248 22.99-2.36 22.99-14.21.002-91.707 10.152-150.001-46.207-206.361z"/><path style="fill:#fc5b5d" d="M366.532 483.701H145.468c-47.498 0-86.14-38.641-86.14-86.139V371.92c0-32.874 18.283-62.418 47.713-77.103 11.988-5.994 24.92-9.036 38.426-9.036H366.53c13.506 0 26.439 3.043 38.438 9.042 29.419 14.68 47.702 44.224 47.702 77.097v25.642c.002 47.497-38.64 86.139-86.138 86.139z"/><path style="fill:#de5153" d="M404.97 294.821c-11.999-6-24.932-9.042-38.438-9.042H256.001V483.7h110.531c47.498 0 86.14-38.641 86.14-86.139v-25.642c0-32.874-18.283-62.418-47.702-77.098zM211.054 419.635c-8.773 0-15.886-7.113-15.886-15.886V365.73c0-8.773 7.113-15.886 15.886-15.886s15.886 7.113 15.886 15.886v38.019c.001 8.774-7.112 15.886-15.886 15.886z"/><path style="fill:#f3b73f" d="M112.011 209.898c-8.06-1.822-13.378-9.517-12.231-17.7.32-2.282.689-4.564 1.1-6.779a156.022 156.022 0 0 1 12.434-38.541c29.228-61.847 94.518-97.694 162.465-89.184 8.204 1.027 14.248 8.176 13.897 16.437-3.842 90.561-88.954 155.806-177.665 135.767z"/><path style="fill:#c74c4e" d="M300.946 419.635c-8.773 0-15.886-7.113-15.886-15.886V365.73c0-8.773 7.113-15.886 15.886-15.886s15.886 7.113 15.886 15.886v38.019c0 8.774-7.113 15.886-15.886 15.886z"/><path style="fill:#e7a53b" d="M275.779 57.694A159.745 159.745 0 0 0 256 56.458v104.704c19.716-23.532 32.255-53.548 33.676-87.033.352-8.26-5.693-15.408-13.897-16.435z"/><circle style="fill:#64503c" cx="179.598" cy="240.431" r="21.015"/><circle style="fill:#514335" cx="332.401" cy="240.431" r="21.015"/></svg>